HIERARCHY
ROOT hip
{
	OFFSET 0.000000 0.000000 0.000000 
	CHANNELS 6 Xposition Yposition Zposition Xrotation Zrotation Yrotation
	JOINT abdomen
	{
		OFFSET 0.000000 3.402643 0.000000 
		CHANNELS 3 Xrotation Zrotation Yrotation
		JOINT chest
		{
			OFFSET 0.000000 8.438565 -0.680529 
			CHANNELS 3 Xrotation Zrotation Yrotation
			JOINT neck
			{
				OFFSET 0.000000 10.207942 -0.272212 
				CHANNELS 3 Xrotation Zrotation Yrotation
				JOINT head
				{
					OFFSET 0.000000 3.130431 0.000000 
					CHANNELS 3 Xrotation Zrotation Yrotation
					End Site
					{
						OFFSET 0.000000 3.130435 0.000000 
					}
				}
			}
			JOINT lCollar
			{
				OFFSET 3.470700 6.669187 -0.816635 
				CHANNELS 3 Yrotation Zrotation Xrotation
				JOINT lShldr
				{
					OFFSET 3.198488 0.000000 0.000000 
					CHANNELS 3 Zrotation Yrotation Xrotation
					JOINT lForeArm
					{
						OFFSET 10.139888 0.000000 0.000000 
						CHANNELS 3 Yrotation Zrotation Xrotation
						JOINT lHand
						{
							OFFSET 8.370511 0.000000 0.000000 
							CHANNELS 3 Zrotation Yrotation Xrotation
							End Site
							{
								OFFSET 4.083176 0.000000 0.000000 
							}
						}
					}
				}
			}
			JOINT rCollar
			{
				OFFSET -3.470700 6.669187 -0.816635 
				CHANNELS 3 Yrotation Zrotation Xrotation
				JOINT rShldr
				{
					OFFSET -3.198488 0.000000 0.000000 
					CHANNELS 3 Zrotation Yrotation Xrotation
					JOINT rForeArm
					{
						OFFSET -10.139888 0.000000 0.000000 
						CHANNELS 3 Yrotation Zrotation Xrotation
						JOINT rHand
						{
							OFFSET -8.370511 0.000000 0.000000 
							CHANNELS 3 Zrotation Yrotation Xrotation
							End Site
							{
								OFFSET -4.083176 0.000000 0.000000 
							}
						}
					}
				}
			}
		}
	}
	JOINT lThigh
	{
		OFFSET 5.308129 -1.633274 1.361059 
		CHANNELS 3 Xrotation Zrotation Yrotation
		JOINT lShin
		{
			OFFSET -2.041588 -20.007561 0.000000 
			CHANNELS 3 Xrotation Zrotation Yrotation
			JOINT lFoot
			{
				OFFSET 0.000000 -19.190928 -1.224953 
				CHANNELS 3 Xrotation Yrotation Zrotation
				End Site
				{
					OFFSET 0.000000 -2.449906 4.627600 
				}
			}
		}
	}
	JOINT rThigh
	{
		OFFSET -5.308129 -1.633274 1.361059 
		CHANNELS 3 Xrotation Zrotation Yrotation
		JOINT rShin
		{
			OFFSET 2.041588 -20.007561 0.000000 
			CHANNELS 3 Xrotation Zrotation Yrotation
			JOINT rFoot
			{
				OFFSET 0.000000 -19.190928 -1.224953 
				CHANNELS 3 Xrotation Yrotation Zrotation
				End Site
				{
					OFFSET 0.000000 -2.449906 4.627600 
				}
			}
		}
	}
}
MOTION
Frames: 18
Frame Time: 0.033333
2.705467 45.126312 7.457640 -18.623049 -0.027763 7.411699 34.497936 4.265445 -6.406897 -20.839844 -0.007467 -0.001337 -12.604455 4.201307 6.621756 -5.806170 -1.925131 0.391980 -6.249050 -0.109138 -0.001707 5.556689 -7.062245 -37.222321 3.886977 -5.803608 -0.133941 -3.016493 4.593536 10.268408 3.250129 0.108978 -0.003601 14.787156 -19.480192 -40.651657 88.738609 -22.938540 -10.121562 -11.198986 -16.639399 -12.808157 25.641066 9.050000 -14.993580 -5.269911 10.297472 -13.036163 -1.487806 24.822561 -15.309145 17.305679 1.630684 2.961552 10.782252 -0.293806 3.384287 -9.746300 6.287626 -0.638224 
2.219426 45.324184 7.425865 -18.263266 0.732626 8.371536 34.521542 3.054169 -7.066667 -20.839844 -0.007467 -0.001337 -13.058001 3.833980 5.799797 -5.806170 -1.925131 0.391980 -6.249050 -0.109138 -0.001707 2.657267 -8.935793 -37.330868 3.850560 -5.575242 -2.717542 -4.226427 4.598798 7.534778 3.250129 0.108978 -0.003601 17.133951 -17.150005 -43.253353 99.719833 -26.474037 -4.497420 -12.648549 -15.147634 -12.095900 23.986401 11.917997 -12.165768 -5.247799 3.882219 -13.997754 -0.074851 21.577600 -13.705301 17.407032 0.985837 0.911875 9.960425 1.054682 2.305669 -9.068156 8.239558 -3.307920 
1.744089 45.518406 7.392623 -17.581635 1.126458 9.330661 34.212940 2.102454 -7.636673 -20.839844 -0.007467 -0.001337 -13.402925 4.128785 4.169298 -5.806170 -1.925131 0.391980 -6.249050 -0.109138 -0.001707 -0.795050 -10.468292 -37.048306 3.867059 -5.037098 -4.730024 -5.018779 4.607031 5.585231 3.250129 0.108978 -0.003601 19.101137 -13.494095 -45.241978 109.996902 -28.167728 2.332016 -13.590472 -12.992748 -10.450297 17.727079 12.405416 -11.270463 4.009393 1.789341 -14.223126 -0.634763 19.011532 -14.884816 17.554338 1.249665 0.615546 8.083880 1.532802 1.276155 -7.808218 8.370866 -5.486810 
1.316636 45.674404 7.325618 -16.946699 1.121001 10.127257 33.823277 1.721742 -7.897288 -20.839844 -0.007467 -0.001337 -14.122570 4.267909 2.536789 -5.806170 -1.925131 0.391980 -6.249050 -0.109138 -0.001707 -4.528179 -12.102828 -36.162956 3.962382 -4.420354 -6.007823 -5.651577 4.736277 3.694854 3.250129 0.108978 -0.003601 20.415421 -9.417337 -46.380905 119.214371 -27.944082 9.256435 -14.304710 -10.556244 -8.050438 10.975669 13.104197 -10.527813 14.502431 0.337570 -12.984462 -1.053578 18.346874 -15.648957 17.426723 2.050376 1.579642 6.537667 1.628419 0.556412 -6.684600 7.100415 -8.036513 
0.953332 45.696384 7.232541 -16.778503 0.663844 10.639708 33.854633 1.719243 -7.647621 -20.839844 -0.007467 -0.001337 -14.947308 4.004238 1.309491 -5.806170 -1.925131 0.391980 -6.249050 -0.109138 -0.001707 -8.461855 -13.810497 -35.038094 4.088322 -3.631738 -6.818952 -6.149024 5.230237 2.285497 3.250129 0.108978 -0.003601 21.274118 -5.447796 -46.735134 126.703018 -26.389488 15.282253 -15.054968 -7.790474 -5.043787 5.293167 13.241000 -10.334149 24.615742 0.994145 -8.176791 -0.115666 22.207384 -9.440736 16.815659 3.047039 2.562424 6.710872 2.018259 0.083680 -6.411973 6.087455 -10.485358 
0.638323 45.635143 7.148731 -16.855488 -0.084115 10.943454 34.068077 2.025034 -6.974908 -20.839844 -0.007467 -0.001337 -15.350958 3.727673 0.197022 -5.806170 -1.925131 0.391980 -6.249050 -0.109138 -0.001707 -12.799891 -15.878514 -33.564472 4.284056 -2.406610 -7.252602 -6.575184 5.409150 1.108727 3.250129 0.108978 -0.003601 22.321470 -1.552194 -46.553940 133.458771 -24.014954 20.058592 -14.332834 -5.101439 -2.655237 1.299213 14.336523 -8.275708 31.178276 2.048851 -2.606248 6.529547 25.308756 -0.560291 16.230238 4.189649 2.913949 7.419133 2.420336 -0.648388 -6.487909 6.231363 -12.206297 
0.374737 45.547184 7.074291 -16.876871 -0.841058 11.446530 34.080353 2.626094 -6.441781 -20.839844 -0.007467 -0.001337 -15.555423 3.820667 -0.922363 -5.806170 -1.925131 0.391980 -6.249050 -0.109138 -0.001707 -17.572737 -18.145702 -31.656820 4.463975 -1.094821 -7.456904 -6.575106 5.537108 -0.029160 3.250129 0.108978 -0.003601 23.398613 2.502908 -45.940189 139.299332 -21.185884 23.361130 -12.134838 -2.240716 -0.869956 -1.073325 16.655212 -4.730897 33.364037 2.517448 -1.150383 14.230448 23.106489 4.391374 15.811929 5.281041 3.037310 7.599962 2.750326 -1.440738 -6.373812 6.618167 -12.850549 
0.157861 45.449825 7.024298 -16.902977 -1.784707 12.163063 33.608952 3.391537 -5.934167 -20.839844 -0.007467 -0.001337 -15.118876 3.737088 -1.859220 -5.806170 -1.925131 0.391980 -6.249050 -0.109138 -0.001707 -23.034922 -20.010164 -28.859058 4.529796 0.007821 -6.671943 -6.342802 5.712422 -0.735589 3.250129 0.108978 -0.003601 24.830387 5.847290 -44.701153 143.750580 -18.331905 25.430433 -9.727781 1.638066 1.074211 -2.841496 19.267233 -1.223732 34.128345 2.820331 -1.767315 19.010353 18.675152 5.445476 15.497519 6.445399 3.730740 7.455162 3.307098 -2.037800 -6.119957 6.260465 -13.449404 
-0.050781 45.371296 7.003987 -16.912561 -2.606936 12.950174 33.132778 3.766569 -5.301395 -20.839844 -0.007467 -0.001337 -14.528041 4.071535 -3.480583 -5.806170 -1.925131 0.391980 -6.249050 -0.109138 -0.001707 -28.544395 -21.800486 -25.546547 4.493474 0.692002 -5.265856 -5.722923 5.974998 -1.315715 3.250129 0.108978 -0.003601 26.238369 7.488619 -42.795109 146.508179 -15.685783 26.520922 -9.330596 5.773254 3.774463 -4.626933 21.367426 1.711799 35.055801 3.523321 -1.961598 22.316818 15.242624 6.025959 15.665519 7.399151 4.366994 6.334240 3.971941 -2.702598 -5.471051 5.814324 -13.573655 
-0.245753 45.315815 7.004982 -16.987753 -3.054294 13.754535 33.057198 3.702896 -4.969202 -20.839844 -0.007467 -0.001337 -14.546853 4.814599 -5.218645 -5.806170 -1.925131 0.391980 -6.249050 -0.109138 -0.001707 -34.090931 -23.322899 -22.042185 4.511471 1.696522 -4.316742 -6.153531 6.243552 -2.613038 3.250129 0.108978 -0.003601 27.054916 8.354510 -41.015274 147.978348 -13.747993 27.226002 -10.022756 10.260852 6.576520 -6.142458 22.577366 2.942049 35.809269 4.109342 -2.441425 25.733622 13.560870 7.362578 15.764770 8.073332 4.485948 5.804519 4.467233 -3.407166 -5.182828 5.841494 -14.107491 
-0.401825 45.289108 6.995140 -17.023392 -3.417995 14.483162 32.906128 3.643155 -4.808877 -20.839844 -0.007467 -0.001337 -14.417068 5.402585 -6.587451 -5.806170 -1.925131 0.391980 -6.249050 -0.109138 -0.001707 -39.565754 -24.214596 -18.585140 4.596641 2.742908 -3.659367 -7.184331 6.360709 -4.106627 3.250129 0.108978 -0.003601 28.109858 8.995234 -39.770424 149.555420 -12.390500 28.084114 -9.565472 14.692618 8.715169 -7.439751 23.588053 3.265847 36.042820 4.197059 -2.998509 29.136251 12.887203 7.228275 15.891604 9.088570 5.091921 5.150602 4.008562 -4.182882 -4.840341 5.309331 -14.355705 
-0.519510 45.235718 7.002417 -17.199469 -3.909397 15.300650 32.689892 3.902493 -4.706932 -20.839844 -0.007467 -0.001337 -13.972461 6.248446 -8.169250 -5.806170 -1.925131 0.391980 -6.249050 -0.109138 -0.001707 -45.386356 -24.421764 -14.453787 4.480027 3.845359 -2.309283 -7.960594 7.093194 -5.766741 3.250129 0.108978 -0.003601 29.213720 9.545559 -39.056374 150.830673 -11.667766 29.214884 -8.172000 19.131527 10.641123 -8.602590 24.820507 3.573818 36.209461 3.976378 -3.892803 32.923046 12.555369 9.859838 16.576248 10.241296 5.899536 3.511601 3.453605 -5.062920 -4.024846 4.609577 -13.786541 
-0.588865 45.185989 7.003150 -17.129848 -4.303013 15.934054 32.272915 4.103712 -4.472934 -20.839844 -0.007467 -0.001337 -13.539084 6.593425 -9.640566 -5.806170 -1.925131 0.391980 -6.249050 -0.109138 -0.001707 -51.635365 -24.218672 -9.625727 4.158234 5.273736 -0.187220 -8.914222 7.533967 -7.466123 3.250129 0.108978 -0.003601 28.793766 10.134149 -38.644440 151.179977 -11.193849 30.192875 -8.077640 22.386751 12.851492 -9.733252 25.654802 4.055531 36.209755 3.855401 -4.726942 36.959038 12.393954 13.713053 16.222986 10.679562 5.683961 3.627371 3.899819 -5.643139 -4.097018 4.887784 -14.275893 
-0.627676 45.140968 7.006918 -17.000359 -4.623691 16.245142 31.850245 4.078076 -4.260260 -20.839844 -0.007467 -0.001337 -13.147320 6.782318 -10.561666 -5.806170 -1.925131 0.391980 -6.249050 -0.109138 -0.001707 -56.877960 -23.188353 -5.689546 3.817371 5.988822 1.607388 -9.523295 7.071263 -8.984692 3.250129 0.108978 -0.003601 27.532396 11.489708 -38.291637 150.649551 -10.858752 30.761255 -8.225804 24.680235 15.128942 -10.603166 26.213411 4.216122 36.176888 3.926912 -4.869816 39.398369 12.212608 13.350941 15.131725 10.924664 4.984324 5.310682 4.451844 -6.030730 -4.915953 5.746440 -15.489127 
-0.666780 45.074478 7.051205 -17.429565 -4.920695 16.463785 31.903831 4.199986 -3.933893 -20.839844 -0.007467 -0.001337 -12.629831 6.821258 -11.152815 -5.806170 -1.925131 0.391980 -6.249050 -0.109138 -0.001707 -61.182034 -21.506058 -3.282108 3.611102 6.345112 2.564952 -9.519062 6.930490 -9.758614 3.250129 0.108978 -0.003601 26.148634 12.524252 -38.234707 149.939102 -10.705339 30.768637 -7.462748 26.498341 16.451080 -10.838815 27.164988 4.662323 36.417385 3.980937 -5.106283 40.900105 11.403384 11.453051 15.103946 11.482135 4.959663 6.150126 4.518038 -6.469970 -5.406734 6.043301 -16.033792 
-0.666530 45.036789 7.092457 -17.681580 -5.165299 16.662954 31.640364 4.331132 -3.731894 -20.839844 -0.007467 -0.001337 -11.855229 7.113461 -11.797900 -5.806170 -1.925131 0.391980 -6.249050 -0.109138 -0.001707 -64.832245 -19.527151 -2.104990 3.552467 6.515878 2.844464 -9.367689 7.420014 -9.828893 3.250129 0.108978 -0.003601 25.009382 13.635689 -38.158066 149.451462 -10.480607 30.557219 -6.445981 26.875143 17.469742 -11.112929 27.976368 5.309806 36.460957 4.034484 -5.352694 43.037464 10.657943 11.001637 15.390121 11.923526 5.381194 5.966226 4.492094 -6.758553 -5.391423 5.691642 -16.034470 
-0.642459 45.024750 7.118840 -17.677237 -5.351673 16.888025 31.080236 4.446535 -3.615168 -20.839844 -0.007467 -0.001337 -11.354862 7.897131 -12.835234 -5.806170 -1.925131 0.391980 -6.249050 -0.109138 -0.001707 -67.874641 -17.961594 -1.646186 3.632291 6.306627 1.939037 -9.555026 7.721040 -10.525621 3.250129 0.108978 -0.003601 23.761524 14.347692 -38.117130 149.012680 -10.252587 30.769514 -5.982537 26.457903 18.976770 -11.501782 28.352654 5.381588 36.190540 4.109330 -6.029238 45.703682 10.269800 11.530516 15.550133 12.173425 5.529634 5.452497 4.456159 -7.013927 -5.167877 5.565665 -15.895916 
-0.619463 44.990730 7.149411 -17.807226 -5.431568 17.190287 30.911350 4.421649 -3.382138 -20.839844 -0.007467 -0.001337 -11.287457 8.466273 -14.099461 -5.806170 -1.925131 0.391980 -6.249050 -0.109138 -0.001707 -70.758125 -16.820278 -0.965326 3.643622 6.314357 1.280818 -10.018151 8.026669 -11.312278 3.250129 0.108978 -0.003601 22.775414 14.530866 -38.102680 148.297348 -10.216119 31.189737 -6.210209 26.871124 20.414221 -11.813784 28.771772 5.434465 36.141174 4.167842 -6.885736 47.577415 9.275230 11.320002 15.610993 12.428782 5.610631 5.550910 4.379399 -7.213663 -5.294465 5.488710 -15.705591 
